<svg id="Capa_1" enable-background="new 0 0 512 512" height="512" viewBox="0 0 512 512" width="512" xmlns="http://www.w3.org/2000/svg"><g><g><path d="m277.976 129.433-13.343.834-59.5 14.265-63 89.474v93.344l63.25 77 59 17.375 13.593.416c72.125-9.753 127.727-71.556 127.727-146.354 0-74.798-55.602-136.601-127.727-146.354z" fill="#dbedff"/><path d="m38.69 277.687h27.607c.265 0 .525.015.783.039v-101.693h-29.174v101.693c.259-.024.52-.039.784-.039z" fill="#8bcaff"/><path d="m460.738 257.018v40.167c.259-.027.52-.043.784-.043h27.607c.265 0 .525.016.783.043v-40.167z" fill="#8bcaff"/><path d="m150.249 275.788c0-74.798 55.602-136.601 127.727-146.354-6.534-.884-13.2-1.35-19.977-1.35-81.574 0-147.704 66.129-147.704 147.704 0 81.574 66.129 147.704 147.704 147.704 6.776 0 13.443-.466 19.977-1.35-72.125-9.753-127.727-71.556-127.727-146.354z" fill="#b5dcff"/><path d="m81.626 433.435-6.968-149.891c-.237-4.445-3.91-7.928-8.36-7.928h-27.608c-4.451 0-8.124 3.483-8.36 7.927l-6.969 149.891c-.888 16.698 12.412 30.723 29.133 30.723 16.721.001 30.021-14.025 29.132-30.722z" fill="#ffaa5b"/><path d="m45.406 144.533-2.085 1.881v13.869l5.56 15.75h26.24c12.353 0 22.366-10.013 22.366-22.366v-9.134z" fill="#dbedff"/><path d="m45.406 153.294v-8.761h-37.906v9.134c0 12.353 10.014 22.366 22.366 22.366h24.161c-5.361-6.056-8.621-14.015-8.621-22.739z" fill="#b5dcff"/><path d="m504.458 433.435-6.968-131.024c-.237-4.445-3.91-7.928-8.36-7.928h-27.607c-4.451 0-8.124 3.483-8.36 7.927l-6.969 131.024c-.888 16.698 12.412 30.723 29.133 30.723 16.719.001 30.019-14.025 29.131-30.722z" fill="#ffaa5b"/><path d="m47.925 433.435 6.969-149.891c.236-4.445 3.909-7.928 8.36-7.928h-24.563c-4.451 0-8.124 3.483-8.36 7.928l-6.969 149.891c-.888 16.698 12.412 30.723 29.133 30.723 4.397 0 8.554-.978 12.282-2.712-10.449-4.858-17.506-15.705-16.852-28.011z" fill="#ff9838"/><path d="m470.756 433.435 6.969-131.024c.236-4.445 3.909-7.927 8.36-7.927h-24.564c-4.451 0-8.124 3.483-8.36 7.927l-6.969 131.024c-.888 16.698 12.412 30.723 29.133 30.723 4.397 0 8.554-.978 12.282-2.712-10.448-4.858-17.505-15.705-16.851-28.011z" fill="#ff9838"/><path d="m498.633 54.991-26.667 19.527-17.833 40.5v121.5l14.25 7.708 6.942 12 6.109 3.015h11.843c5.094 0 9.223-4.129 9.223-9.222v-190.97c0-1.446-.268-2.811-.75-4.058z" fill="#dbedff"/><path d="m476.278 253.015c-2.513-7.596-7.814-13.92-14.693-17.76-2.927-1.634-4.754-4.707-4.754-8.058v-95.168c0-32.282 17.515-61.527 44.919-77.037-2.095-5.412-8.243-8.597-14.168-6.521-35.492 12.442-59.251 45.947-59.251 83.557v95.168c0 3.352 1.827 6.424 4.754 8.058 6.879 3.84 12.18 10.165 14.693 17.76 1.237 3.738 4.777 6.227 8.715 6.227h28.5c-3.937 0-7.478-2.488-8.715-6.226z" fill="#b5dcff"/><path d="m277.976 168.811h-22.092l-44.5 33.29-29.75 54.917v54.167l31.948 50.464 44.418 21.535 19.977-.421c50.553-9.381 88.836-53.705 88.836-106.976-.001-53.271-38.284-97.594-88.837-106.976z" fill="#b5dcff"/><path d="m189.14 275.788c0-53.271 38.283-97.595 88.836-106.976-6.476-1.202-13.152-1.836-19.977-1.836-60.096 0-108.813 48.717-108.813 108.813 0 60.095 48.717 108.812 108.813 108.812 6.825 0 13.5-.635 19.977-1.836-50.553-9.383-88.836-53.706-88.836-106.977z" fill="#8bcaff"/></g><g><path d="m102.796 275.788c0 85.58 69.624 155.204 155.204 155.204s155.204-69.624 155.204-155.204-69.624-155.204-155.204-155.204-155.204 69.624-155.204 155.204zm155.204-140.204c77.309 0 140.204 62.896 140.204 140.204s-62.895 140.203-140.204 140.203-140.204-62.895-140.204-140.204 62.895-140.203 140.204-140.203z"/><path d="m89.118 433.061-6.97-149.917c-.289-5.399-3.257-10.037-7.566-12.682v-86.929h.54c16.469 0 29.866-13.398 29.866-29.866 0-10.329 0-84.521 0-94.842 0-4.142-3.357-7.5-7.5-7.5s-7.5 3.358-7.5 7.5v78.208h-15.406v-78.208c0-4.142-3.357-7.5-7.5-7.5s-7.5 3.358-7.5 7.5v78.208h-14.175v-78.208c0-4.142-3.357-7.5-7.5-7.5s-7.5 3.358-7.5 7.5v78.208h-15.407v-78.208c0-4.142-3.357-7.5-7.5-7.5s-7.5 3.358-7.5 7.5v94.842c0 16.468 13.397 29.866 29.866 29.866h.541v86.932c-4.311 2.648-7.279 7.299-7.568 12.731l-6.967 149.841c-1.118 21.025 15.585 38.622 36.623 38.622 21.035-.001 37.726-17.59 36.623-38.598zm-74.118-279.394v-1.634h74.988v1.634c0 8.197-6.669 14.866-14.866 14.866-10.147 0-35.686 0-45.256 0-8.197 0-14.866-6.669-14.866-14.866zm44.582 29.866v84.583h-14.175v-84.583zm-7.087 273.125c-12.386 0-22.308-10.331-21.642-22.875l6.967-149.84c.024-.463.407-.826.87-.826h.004l27.637.006c.448.018.814.368.835.77l6.968 149.891c.001.017.002.034.003.05.662 12.426-9.209 22.824-21.642 22.824z"/><path d="m237.165 390.235c4.075.736 7.978-1.969 8.715-6.045.738-4.076-1.969-7.978-6.045-8.716-48.179-8.717-83.147-50.642-83.147-99.687 0-55.864 45.448-101.313 101.312-101.313s101.312 45.449 101.312 101.313c0 50.107-37.347 93.22-86.871 100.284-4.102.585-6.951 4.383-6.366 8.484.533 3.742 3.742 6.442 7.415 6.442.353 0 .71-.025 1.068-.076 27.455-3.916 52.679-17.625 71.025-38.601 18.525-21.182 28.729-48.361 28.729-76.533 0-64.135-52.178-116.313-116.312-116.313s-116.312 52.178-116.312 116.313c0 56.306 40.154 104.438 95.477 114.448z"/><path d="m509.498 386.989c-.221-4.137-3.771-7.314-7.888-7.091-4.136.22-7.311 3.751-7.091 7.888l2.449 46.047c.661 12.426-9.21 22.825-21.643 22.825-12.444 0-22.303-10.408-21.645-22.825l6.97-131.024c.024-.463.407-.826.871-.826l27.637.006c.449.016.817.368.841.82l2.657 49.976c.221 4.138 3.756 7.323 7.888 7.091 4.136-.22 7.311-3.751 7.091-7.888l-2.657-49.978c-.289-5.399-3.257-10.037-7.566-12.682v-23.127c7.223-1.848 12.587-8.392 12.587-16.183v-190.969c0-6.054-2.948-11.759-7.887-15.261s-11.299-4.398-17.013-2.395c-38.441 13.476-64.27 49.899-64.27 90.635v95.168c0 6.049 3.295 11.646 8.598 14.606 5.332 2.977 9.319 7.795 11.229 13.568 1.905 5.755 6.758 9.899 12.58 11.042v22.917c-4.31 2.645-7.278 7.283-7.565 12.683l-6.97 131.024c-1.119 21.027 15.586 38.621 36.623 38.621 21.055 0 37.739-17.614 36.621-38.622zm-41.26-120.248h14.175v20.242h-14.175zm-31.498-38.035c-.561-.313-.909-.892-.909-1.509v-95.168c0-34.373 21.794-65.108 54.232-76.479 1.572-.549 2.789.061 3.373.475s1.564 1.356 1.564 3.024v190.97c0 .95-.772 1.722-1.723 1.722h-3.364-29.175-4.244c-.729 0-1.385-.445-1.596-1.082-3.09-9.346-9.54-17.142-18.158-21.953z"/></g></g></svg>